<svg xmlns="http://www.w3.org/2000/svg" width="33" height="40" viewBox="0 0 33 40" fill="none">
    <path
        d="M17.6545 29.6182C17.5651 29.5359 17.4677 29.4628 17.3636 29.4C17.2708 29.328 17.1662 29.2727 17.0545 29.2364C16.9463 29.181 16.8295 29.1441 16.7091 29.1273C16.3608 29.0536 15.9981 29.0918 15.6727 29.2364C15.4471 29.318 15.2422 29.4483 15.0725 29.618C14.9028 29.7876 14.7726 29.9926 14.6909 30.2182C14.5891 30.434 14.5393 30.6706 14.5455 30.9091C14.5426 31.1455 14.5858 31.3802 14.6727 31.6C14.7781 31.8173 14.9127 32.0191 15.0727 32.2C15.2426 32.3685 15.4441 32.5018 15.6656 32.5923C15.8871 32.6828 16.1244 32.7287 16.3636 32.7273C16.6021 32.7334 16.8388 32.6836 17.0545 32.5818C17.2749 32.4897 17.4778 32.3606 17.6545 32.2C17.8231 32.0301 17.9564 31.8286 18.0469 31.6071C18.1373 31.3856 18.1832 31.1484 18.1818 30.9091C18.1789 30.6715 18.1295 30.4368 18.0364 30.2182C17.9498 29.995 17.8201 29.7911 17.6545 29.6182ZM10.0909 22.1273C9.99809 22.0553 9.89352 21.9999 9.78182 21.9636C9.67592 21.8956 9.55904 21.8464 9.43636 21.8182C9.20312 21.7639 8.96052 21.7639 8.72727 21.8182L8.4 21.9273L8.07273 22.0909L7.8 22.3091C7.45914 22.6666 7.27015 23.1424 7.27273 23.6364C7.27134 23.8756 7.31721 24.1129 7.40769 24.3344C7.49817 24.5559 7.63149 24.7574 7.8 24.9273C7.97673 25.0879 8.17966 25.217 8.4 25.3091C8.67545 25.4223 8.97448 25.466 9.27081 25.4366C9.56714 25.4071 9.8517 25.3053 10.0995 25.1401C10.3473 24.9749 10.5507 24.7514 10.6918 24.4892C10.833 24.227 10.9076 23.9342 10.9091 23.6364C10.9024 23.155 10.7141 22.6939 10.3818 22.3455L10.0909 22.1273ZM10.3818 29.6182C10.2089 29.4527 10.005 29.3229 9.78182 29.2364C9.45269 29.0838 9.08543 29.0331 8.72727 29.0909L8.4 29.2C8.28414 29.2398 8.17408 29.2948 8.07273 29.3636C7.97748 29.4308 7.8864 29.5036 7.8 29.5818C7.63447 29.7547 7.50472 29.9586 7.41818 30.1818C7.32199 30.3995 7.2723 30.6348 7.2723 30.8727C7.2723 31.1107 7.32199 31.346 7.41818 31.5636C7.51026 31.784 7.6394 31.9869 7.8 32.1636C7.96687 32.3387 8.16699 32.4788 8.38865 32.5755C8.61032 32.6723 8.84906 32.7239 9.09091 32.7273C9.32941 32.7334 9.56604 32.6836 9.78182 32.5818C10.0022 32.4897 10.2051 32.3606 10.3818 32.2C10.5424 32.0233 10.6716 31.8203 10.7636 31.6C10.8598 31.3824 10.9095 31.147 10.9095 30.9091C10.9095 30.6711 10.8598 30.4358 10.7636 30.2182C10.6771 29.995 10.5473 29.7911 10.3818 29.6182ZM15.6727 21.9636C15.4495 22.0502 15.2456 22.1799 15.0727 22.3455C14.7405 22.6939 14.5522 23.155 14.5455 23.6364C14.5469 23.9342 14.6215 24.227 14.7627 24.4892C14.9039 24.7514 15.1073 24.9749 15.3551 25.1401C15.6028 25.3053 15.8874 25.4071 16.1837 25.4366C16.4801 25.466 16.7791 25.4223 17.0545 25.3091C17.2749 25.217 17.4778 25.0879 17.6545 24.9273C17.8231 24.7574 17.9564 24.5559 18.0469 24.3344C18.1373 24.1129 18.1832 23.8756 18.1818 23.6364C18.1751 23.155 17.9868 22.6939 17.6545 22.3455C17.3989 22.0932 17.0742 21.9223 16.7215 21.8543C16.3688 21.7864 16.0038 21.8244 15.6727 21.9636ZM24.9273 29.6182C24.7505 29.4576 24.5476 29.3284 24.3273 29.2364C23.9962 29.0971 23.6312 29.0591 23.2785 29.127C22.9258 29.195 22.6011 29.3659 22.3455 29.6182C22.1799 29.7911 22.0502 29.995 21.9636 30.2182C21.8674 30.4358 21.8178 30.6711 21.8178 30.9091C21.8178 31.147 21.8674 31.3824 21.9636 31.6C22.0557 31.8203 22.1849 32.0233 22.3455 32.2C22.5153 32.3685 22.7168 32.5018 22.9384 32.5923C23.1599 32.6828 23.3971 32.7287 23.6364 32.7273C23.8749 32.7334 24.1115 32.6836 24.3273 32.5818C24.5476 32.4897 24.7505 32.3606 24.9273 32.2C25.1796 31.9443 25.3505 31.6196 25.4184 31.2669C25.4864 30.9142 25.4483 30.5493 25.3091 30.2182C25.2226 29.995 25.0928 29.7911 24.9273 29.6182ZM23.6364 7.27273H9.09091C8.6087 7.27273 8.14624 7.46429 7.80526 7.80526C7.46429 8.14624 7.27273 8.6087 7.27273 9.09091V16.3636C7.27273 16.8458 7.46429 17.3083 7.80526 17.6493C8.14624 17.9903 8.6087 18.1818 9.09091 18.1818H23.6364C24.1186 18.1818 24.581 17.9903 24.922 17.6493C25.263 17.3083 25.4545 16.8458 25.4545 16.3636V9.09091C25.4545 8.6087 25.263 8.14624 24.922 7.80526C24.581 7.46429 24.1186 7.27273 23.6364 7.27273ZM21.8182 14.5455H10.9091V10.9091H21.8182V14.5455ZM27.2727 0H5.45455C4.00791 0 2.62053 0.574674 1.5976 1.5976C0.574674 2.62053 0 4.00791 0 5.45455V34.5455C0 35.9921 0.574674 37.3795 1.5976 38.4024C2.62053 39.4253 4.00791 40 5.45455 40H27.2727C28.7194 40 30.1067 39.4253 31.1297 38.4024C32.1526 37.3795 32.7273 35.9921 32.7273 34.5455V5.45455C32.7273 4.00791 32.1526 2.62053 31.1297 1.5976C30.1067 0.574674 28.7194 0 27.2727 0ZM29.0909 34.5455C29.0909 35.0277 28.8994 35.4901 28.5584 35.8311C28.2174 36.1721 27.7549 36.3636 27.2727 36.3636H5.45455C4.97233 36.3636 4.50987 36.1721 4.1689 35.8311C3.82792 35.4901 3.63636 35.0277 3.63636 34.5455V5.45455C3.63636 4.97233 3.82792 4.50987 4.1689 4.1689C4.50987 3.82792 4.97233 3.63636 5.45455 3.63636H27.2727C27.7549 3.63636 28.2174 3.82792 28.5584 4.1689C28.8994 4.50987 29.0909 4.97233 29.0909 5.45455V34.5455ZM24.6364 22.1273C24.5435 22.0553 24.439 21.9999 24.3273 21.9636C24.219 21.9083 24.1022 21.8714 23.9818 21.8545C23.7486 21.8002 23.506 21.8002 23.2727 21.8545L22.9455 21.9636L22.6182 22.1273L22.3455 22.3455C22.0132 22.6939 21.8249 23.155 21.8182 23.6364C21.8197 23.9342 21.8943 24.227 22.0354 24.4892C22.1766 24.7514 22.38 24.9749 22.6278 25.1401C22.8756 25.3053 23.1601 25.4071 23.4565 25.4366C23.7528 25.466 24.0518 25.4223 24.3273 25.3091C24.5476 25.217 24.7505 25.0879 24.9273 24.9273C25.0958 24.7574 25.2291 24.5559 25.3196 24.3344C25.4101 24.1129 25.4559 23.8756 25.4545 23.6364C25.4478 23.155 25.2595 22.6939 24.9273 22.3455L24.6364 22.1273Z"
        fill="#767676"
    />
</svg>
