<svg width="37" height="40" viewBox="0 0 37 40" fill="none" xmlns="http://www.w3.org/2000/svg">
<path d="M30.9091 3.63636H29.0909V1.81818C29.0909 1.33597 28.8994 0.873508 28.5584 0.532533C28.2174 0.191558 27.7549 0 27.2727 0C26.7905 0 26.3281 0.191558 25.9871 0.532533C25.6461 0.873508 25.4545 1.33597 25.4545 1.81818V3.63636H10.9091V1.81818C10.9091 1.33597 10.7175 0.873508 10.3766 0.532533C10.0356 0.191558 9.57312 0 9.09091 0C8.6087 0 8.14624 0.191558 7.80526 0.532533C7.46429 0.873508 7.27273 1.33597 7.27273 1.81818V3.63636H5.45455C4.00791 3.63636 2.62053 4.21104 1.5976 5.23396C0.574674 6.25689 0 7.64427 0 9.09091V34.5455C0 35.9921 0.574674 37.3795 1.5976 38.4024C2.62053 39.4253 4.00791 40 5.45455 40H30.9091C32.3557 40 33.7431 39.4253 34.766 38.4024C35.789 37.3795 36.3636 35.9921 36.3636 34.5455V9.09091C36.3636 7.64427 35.789 6.25689 34.766 5.23396C33.7431 4.21104 32.3557 3.63636 30.9091 3.63636ZM32.7273 34.5455C32.7273 35.0277 32.5357 35.4901 32.1947 35.8311C31.8538 36.1721 31.3913 36.3636 30.9091 36.3636H5.45455C4.97233 36.3636 4.50987 36.1721 4.1689 35.8311C3.82792 35.4901 3.63636 35.0277 3.63636 34.5455V18.1818H32.7273V34.5455ZM32.7273 14.5455H3.63636V9.09091C3.63636 8.6087 3.82792 8.14624 4.1689 7.80526C4.50987 7.46429 4.97233 7.27273 5.45455 7.27273H7.27273V9.09091C7.27273 9.57312 7.46429 10.0356 7.80526 10.3766C8.14624 10.7175 8.6087 10.9091 9.09091 10.9091C9.57312 10.9091 10.0356 10.7175 10.3766 10.3766C10.7175 10.0356 10.9091 9.57312 10.9091 9.09091V7.27273H25.4545V9.09091C25.4545 9.57312 25.6461 10.0356 25.9871 10.3766C26.3281 10.7175 26.7905 10.9091 27.2727 10.9091C27.7549 10.9091 28.2174 10.7175 28.5584 10.3766C28.8994 10.0356 29.0909 9.57312 29.0909 9.09091V7.27273H30.9091C31.3913 7.27273 31.8538 7.46429 32.1947 7.80526C32.5357 8.14624 32.7273 8.6087 32.7273 9.09091V14.5455Z" fill="#767676"/>
</svg>
