<svg width="40" height="38" viewBox="0 0 40 38" fill="none" xmlns="http://www.w3.org/2000/svg">
<path d="M34 8H28V6C28 4.4087 27.3679 2.88258 26.2426 1.75736C25.1174 0.632141 23.5913 0 22 0H18C16.4087 0 14.8826 0.632141 13.7574 1.75736C12.6321 2.88258 12 4.4087 12 6V8H6C4.4087 8 2.88258 8.63214 1.75736 9.75736C0.632141 10.8826 0 12.4087 0 14V32C0 33.5913 0.632141 35.1174 1.75736 36.2426C2.88258 37.3679 4.4087 38 6 38H34C35.5913 38 37.1174 37.3679 38.2426 36.2426C39.3679 35.1174 40 33.5913 40 32V14C40 12.4087 39.3679 10.8826 38.2426 9.75736C37.1174 8.63214 35.5913 8 34 8ZM16 6C16 5.46957 16.2107 4.96086 16.5858 4.58579C16.9609 4.21071 17.4696 4 18 4H22C22.5304 4 23.0391 4.21071 23.4142 4.58579C23.7893 4.96086 24 5.46957 24 6V8H16V6ZM36 32C36 32.5304 35.7893 33.0391 35.4142 33.4142C35.0391 33.7893 34.5304 34 34 34H6C5.46957 34 4.96086 33.7893 4.58579 33.4142C4.21071 33.0391 4 32.5304 4 32V21.9H10V24C10 24.5304 10.2107 25.0391 10.5858 25.4142C10.9609 25.7893 11.4696 26 12 26C12.5304 26 13.0391 25.7893 13.4142 25.4142C13.7893 25.0391 14 24.5304 14 24V21.9H26V24C26 24.5304 26.2107 25.0391 26.5858 25.4142C26.9609 25.7893 27.4696 26 28 26C28.5304 26 29.0391 25.7893 29.4142 25.4142C29.7893 25.0391 30 24.5304 30 24V21.9H36V32ZM36 18H4V14C4 13.4696 4.21071 12.9609 4.58579 12.5858C4.96086 12.2107 5.46957 12 6 12H34C34.5304 12 35.0391 12.2107 35.4142 12.5858C35.7893 12.9609 36 13.4696 36 14V18Z" fill="#767676"/>
</svg>
