<svg width="1536" height="1536" viewBox="0 0 1536 1536" fill="none" xmlns="http://www.w3.org/2000/svg">
<rect width="1536" height="1536" rx="768" fill="#FA835F"/>
<path fill-rule="evenodd" clip-rule="evenodd" d="M862.549 300.39L770.402 199.779L678.152 300.51L538.798 233.43L580.554 430.89L593.231 425.58C625.682 411.994 659.621 402.249 694.099 396.613C718.112 392.7 742.605 390.711 766.896 390.711C829.386 390.711 890.132 403.457 947.454 428.601L960.752 434.434L995.514 233.383L862.549 300.39Z" fill="white"/>
<path fill-rule="evenodd" clip-rule="evenodd" d="M993.025 1183.16V1337.27H1126.28V843.717C1126.28 781.428 1110.27 721.064 1078.71 664.295C1047.4 608.002 1002.9 563.594 946.456 532.291C889.521 500.709 829.225 484.694 767.258 484.694C705.291 484.694 645.003 500.709 588.068 532.286C531.621 563.594 487.122 608.006 455.806 664.295C424.242 721.064 408.235 781.428 408.235 843.717C408.235 905.954 424.649 966.622 457.019 1024.02C489.128 1080.97 534.171 1125.39 590.888 1156.03C648.252 1187.02 707.588 1202.74 767.258 1202.74C812.892 1202.74 859.041 1193.65 904.491 1175.72V1023.43C895.988 1029.82 887.065 1035.56 877.855 1040.55C842.438 1059.75 805.233 1069.48 767.258 1069.48C729.625 1069.48 692.588 1059.75 657.175 1040.54C621.153 1021.03 592.503 992.804 572.013 956.641C551.759 920.911 541.495 882.914 541.495 843.717C541.495 804.618 551.459 766.869 571.113 731.525C591.033 695.709 619.388 667.449 655.388 647.534C690.873 627.905 728.515 617.954 767.258 617.954C805.992 617.954 843.633 627.901 879.128 647.534C915.128 667.454 943.486 695.714 963.406 731.521C983.061 766.874 993.025 804.622 993.025 843.717V1140.66V1183.16Z" fill="white"/>
</svg>
