<svg width="10" height="12" viewBox="0 0 10 12" fill="none" xmlns="http://www.w3.org/2000/svg">
<path d="M4.79998 0C3.52695 0 2.30605 0.505711 1.40588 1.40588C0.505711 2.30605 0 3.52695 0 4.79998C0 8.03997 4.22999 11.7 4.40999 11.856C4.51867 11.9489 4.65697 12 4.79998 12C4.943 12 5.0813 11.9489 5.18998 11.856C5.39998 11.7 9.59997 8.03997 9.59997 4.79998C9.59997 3.52695 9.09426 2.30605 8.19409 1.40588C7.29391 0.505711 6.07302 0 4.79998 0ZM4.79998 10.59C3.52199 9.38997 1.2 6.80398 1.2 4.79998C1.2 3.84521 1.57928 2.92954 2.25441 2.25441C2.92954 1.57928 3.84521 1.2 4.79998 1.2C5.75476 1.2 6.67043 1.57928 7.34556 2.25441C8.02069 2.92954 8.39997 3.84521 8.39997 4.79998C8.39997 6.80398 6.07798 9.39597 4.79998 10.59ZM4.79998 2.39999C4.32531 2.39999 3.8613 2.54075 3.46662 2.80446C3.07194 3.06818 2.76433 3.44301 2.58268 3.88155C2.40103 4.32009 2.3535 4.80265 2.44611 5.2682C2.53871 5.73375 2.76729 6.16139 3.10293 6.49704C3.43858 6.83268 3.86622 7.06126 4.33177 7.15386C4.79732 7.24647 5.27988 7.19894 5.71842 7.01729C6.15696 6.83564 6.53179 6.52803 6.79551 6.13335C7.05922 5.73867 7.19998 5.27466 7.19998 4.79998C7.19998 4.16347 6.94712 3.55302 6.49704 3.10293C6.04695 2.65285 5.4365 2.39999 4.79998 2.39999ZM4.79998 5.99998C4.56265 5.99998 4.33064 5.9296 4.1333 5.79774C3.93596 5.66589 3.78216 5.47847 3.69133 5.2592C3.60051 5.03993 3.57674 4.79865 3.62305 4.56588C3.66935 4.3331 3.78364 4.11928 3.95146 3.95146C4.11928 3.78364 4.3331 3.66935 4.56588 3.62305C4.79865 3.57674 5.03993 3.60051 5.2592 3.69133C5.47847 3.78216 5.66589 3.93596 5.79774 4.1333C5.9296 4.33064 5.99998 4.56265 5.99998 4.79998C5.99998 5.11824 5.87355 5.42347 5.64851 5.64851C5.42347 5.87355 5.11824 5.99998 4.79998 5.99998Z" fill="black"/>
</svg>
