<svg width="19" height="18" viewBox="0 0 19 18" fill="none" xmlns="http://www.w3.org/2000/svg">
<path d="M15.8149 9.92866C15.6156 9.92866 15.4073 9.86525 15.208 9.81996C14.8044 9.73102 14.4078 9.61295 14.0213 9.46667C13.601 9.31378 13.1391 9.32172 12.7243 9.48896C12.3096 9.65619 11.9713 9.97091 11.7747 10.3725L11.5754 10.7802C10.6931 10.2894 9.88231 9.67976 9.16578 8.96844C8.45446 8.25191 7.84486 7.44113 7.35403 6.55881L7.7345 6.30517C8.13613 6.10852 8.45085 5.77028 8.61808 5.35553C8.78532 4.94079 8.79326 4.47885 8.64038 4.0586C8.49654 3.67127 8.37852 3.27484 8.28708 2.87191C8.24179 2.67261 8.20556 2.46426 8.17838 2.25591C8.06837 1.61783 7.73416 1.04 7.23593 0.626463C6.73769 0.212929 6.10818 -0.00912562 5.46076 0.000287436H2.74314C2.35273 -0.00337822 1.96612 0.0771177 1.60963 0.236295C1.25313 0.395473 0.935113 0.629594 0.677229 0.922722C0.419345 1.21585 0.227648 1.5611 0.115187 1.93497C0.0027255 2.30885 -0.0278587 2.70256 0.0255159 3.08932C0.508109 6.88437 2.24131 10.4105 4.95134 13.1107C7.66137 15.8109 11.1938 17.5312 14.9906 18H15.3348C16.0028 18.001 16.6478 17.7559 17.1465 17.3115C17.4331 17.0552 17.662 16.741 17.8182 16.3896C17.9744 16.0383 18.0542 15.6578 18.0524 15.2733V12.5557C18.0413 11.9265 17.8122 11.3206 17.4041 10.8415C16.996 10.3624 16.4343 10.0397 15.8149 9.92866ZM16.2678 15.3639C16.2677 15.4925 16.2401 15.6196 16.187 15.7368C16.1339 15.8539 16.0565 15.9584 15.9598 16.0433C15.8586 16.1307 15.7403 16.196 15.6123 16.235C15.4844 16.274 15.3498 16.2858 15.217 16.2698C11.8244 15.8348 8.6732 14.2827 6.26039 11.8584C3.84757 9.43414 2.3105 6.27558 1.89162 2.88097C1.8772 2.74827 1.88983 2.61403 1.92876 2.48636C1.96768 2.35869 2.03209 2.24023 2.11808 2.13815C2.20297 2.04152 2.30747 1.96408 2.42461 1.91097C2.54176 1.85787 2.66887 1.83032 2.79749 1.83015H5.51511C5.72577 1.82546 5.93147 1.89436 6.09681 2.02498C6.26215 2.1556 6.37679 2.33977 6.42098 2.54579C6.45722 2.7934 6.50251 3.03798 6.55687 3.27955C6.66151 3.75708 6.80078 4.22635 6.97357 4.68365L5.70534 5.27247C5.59691 5.32222 5.49937 5.39291 5.41832 5.48046C5.33728 5.56801 5.27433 5.67071 5.23309 5.78266C5.19184 5.8946 5.17312 6.0136 5.17799 6.1328C5.18286 6.25201 5.21123 6.36907 5.26147 6.47728C6.5652 9.26987 8.80999 11.5147 11.6026 12.8184C11.8231 12.909 12.0705 12.909 12.291 12.8184C12.404 12.778 12.5078 12.7155 12.5965 12.6347C12.6851 12.5538 12.7568 12.4561 12.8074 12.3473L13.369 11.0791C13.8373 11.2466 14.3153 11.3857 14.8003 11.4958C15.0419 11.5502 15.2865 11.5955 15.5341 11.6317C15.7401 11.6759 15.9243 11.7905 16.0549 11.9559C16.1855 12.1212 16.2544 12.3269 16.2497 12.5376L16.2678 15.3639Z" fill="#FA835F"/>
</svg>
