<svg width="48" height="48" viewBox="0 0 48 48" fill="none" xmlns="http://www.w3.org/2000/svg">
<path d="M8.07221 15.377C8.50803 15.6794 9.04611 15.7963 9.56808 15.7019C10.09 15.6075 10.5532 15.3097 10.8555 14.8739C12.9714 11.7825 16.099 9.52567 19.6997 8.49213C23.3005 7.45859 27.1489 7.71304 30.5822 9.21163C34.0156 10.7102 36.8188 13.3592 38.5093 16.7022C40.1997 20.0453 40.6714 23.8731 39.8433 27.5266C39.0151 31.18 36.9388 34.4303 33.9721 36.7177C31.0053 39.005 27.3338 40.1862 23.5899 40.0578C19.8459 39.9294 16.264 38.4995 13.4609 36.0143C10.6578 33.5291 8.80903 30.1442 8.23306 26.4426L12.1768 29.1788C12.6126 29.4812 13.1507 29.5981 13.6727 29.5037C14.1947 29.4093 14.6578 29.1115 14.9601 28.6757C15.2625 28.2399 15.3794 27.7018 15.285 27.1798C15.1906 26.6578 14.8928 26.1947 14.457 25.8924L7.01313 20.7278C6.57732 20.4254 6.03924 20.3086 5.51727 20.4029C4.9953 20.4973 4.53219 20.7951 4.22982 21.231L-0.900545 28.6255C-1.20291 29.0613 -1.31977 29.5994 -1.22541 30.1214C-1.13105 30.6433 -0.833206 31.1064 -0.397393 31.4088C0.0384205 31.7112 0.5765 31.828 1.09847 31.7337C1.62044 31.6393 2.08355 31.3415 2.38592 30.9057L4.40387 27.9971C5.32545 32.5117 7.77756 36.5696 11.3457 39.4848C14.9138 42.4001 19.3791 43.9939 23.9868 43.9969C28.5944 43.9999 33.0618 42.4118 36.6337 39.5012C40.2056 36.5906 42.663 32.5359 43.5904 28.0225C44.5178 23.5092 43.8584 18.814 41.7237 14.7308C39.5889 10.6475 36.1098 7.42652 31.8743 5.61236C27.6388 3.79821 22.9068 3.50213 18.4783 4.77418C14.0497 6.04623 10.1962 8.80838 7.56906 12.5937C7.26669 13.0295 7.14983 13.5676 7.24419 14.0896C7.33855 14.6115 7.6364 15.0747 8.07221 15.377Z" fill="#767676"/>
</svg>
