<svg width="24" height="24" viewBox="0 0 24 24" fill="none" xmlns="http://www.w3.org/2000/svg">
<path d="M18.5008 5.49982H14.5008C14.2356 5.49982 13.9812 5.60517 13.7937 5.79271C13.6061 5.98025 13.5008 6.2346 13.5008 6.49982C13.5008 6.76503 13.6061 7.01939 13.7937 7.20692C13.9812 7.39446 14.2356 7.49982 14.5008 7.49982H18.5008C18.766 7.49982 19.0204 7.60517 19.2079 7.79271C19.3954 7.98025 19.5008 8.2346 19.5008 8.49982V18.2198L17.9308 16.7698C17.7464 16.5972 17.5034 16.5007 17.2508 16.4998H8.50079C8.23558 16.4998 7.98122 16.3945 7.79369 16.2069C7.60615 16.0194 7.50079 15.765 7.50079 15.4998V14.4998C7.50079 14.2346 7.39544 13.9802 7.2079 13.7927C7.02036 13.6052 6.76601 13.4998 6.50079 13.4998C6.23558 13.4998 5.98122 13.6052 5.79369 13.7927C5.60615 13.9802 5.50079 14.2346 5.50079 14.4998V15.4998C5.50079 16.2955 5.81686 17.0585 6.37947 17.6211C6.94208 18.1837 7.70514 18.4998 8.50079 18.4998H16.8608L19.8608 21.2298C20.0452 21.4025 20.2882 21.4989 20.5408 21.4998C20.6779 21.4983 20.8136 21.4712 20.9408 21.4198C21.1197 21.3417 21.2718 21.213 21.3784 21.0496C21.485 20.8861 21.5415 20.695 21.5408 20.4998V8.49982C21.5408 8.10246 21.4619 7.70906 21.3087 7.34245C21.1554 6.97584 20.9308 6.64333 20.648 6.36423C20.3652 6.08512 20.0297 5.86498 19.6611 5.71659C19.2925 5.5682 18.8981 5.49452 18.5008 5.49982ZM9.08079 12.4998H11.5008C11.766 12.4998 12.0204 12.3945 12.2079 12.2069C12.3954 12.0194 12.5008 11.765 12.5008 11.4998V9.07982C12.5016 8.94821 12.4763 8.81775 12.4266 8.69591C12.3768 8.57407 12.3035 8.46326 12.2108 8.36982L6.63079 2.78982C6.44343 2.60357 6.18998 2.49902 5.92579 2.49902C5.66161 2.49902 5.40815 2.60357 5.22079 2.78982L2.79079 5.21982C2.60454 5.40718 2.5 5.66063 2.5 5.92482C2.5 6.189 2.60454 6.44245 2.79079 6.62982L8.37079 12.2098C8.46423 12.3025 8.57505 12.3758 8.69689 12.4256C8.81872 12.4754 8.94919 12.5006 9.08079 12.4998ZM5.92079 4.90982L10.5008 9.48982V10.4898H9.50079L4.91079 5.91982L5.92079 4.90982Z" fill="#767676"/>
</svg>
