<svg width="24" height="24" viewBox="0 0 24 24" fill="none" xmlns="http://www.w3.org/2000/svg">
<path d="M11.9986 1.99955C10.4664 1.99678 8.95419 2.34609 7.5785 3.02052C6.20281 3.69495 5.00049 4.67647 4.06433 5.88931C3.12818 7.10216 2.48323 8.51389 2.17926 10.0155C1.87529 11.5172 1.92043 13.0686 2.3112 14.5501C2.70197 16.0315 3.42792 17.4034 4.43301 18.5597C5.43811 19.7161 6.69547 20.626 8.10804 21.2193C9.52062 21.8126 11.0506 22.0734 12.58 21.9815C14.1093 21.8897 15.5972 21.4477 16.9286 20.6896H17.0486C18.9738 19.5936 20.4806 17.8893 21.3325 15.8443C22.1844 13.7993 22.333 11.5292 21.7552 9.39058C21.1773 7.25192 19.9056 5.36569 18.1398 4.02797C16.3739 2.69025 14.2138 1.97678 11.9986 1.99955ZM12.9986 4.06955C14.7586 4.29275 16.3945 5.09465 17.649 6.34914C18.9035 7.60363 19.7054 9.23953 19.9286 10.9996H12.9986V4.06955ZM11.9986 19.9996C9.97307 19.9857 8.02822 19.2041 6.5565 17.8124C5.08478 16.4207 4.19576 14.5225 4.06886 12.5009C3.94196 10.4794 4.58662 8.48495 5.87274 6.92011C7.15886 5.35528 8.9907 4.33657 10.9986 4.06955V11.9996C11.0025 12.1193 11.0262 12.2375 11.0686 12.3496V12.4996L15.0686 19.3696C14.0983 19.7848 13.0539 19.9991 11.9986 19.9996ZM16.8286 18.3596L13.7286 12.9996H19.9286C19.7939 14.0541 19.4504 15.0713 18.9182 15.9916C18.3859 16.9119 17.6755 17.7169 16.8286 18.3596Z" fill="#FA835F"/>
</svg>
