<svg width="24" height="25" viewBox="0 0 24 25" fill="none" xmlns="http://www.w3.org/2000/svg">
<path d="M20.1649 5.47673C19.1046 4.39737 17.6991 3.73858 16.2022 3.61938C14.7054 3.50018 13.2159 3.92843 12.0028 4.82675C10.7302 3.86563 9.14609 3.42982 7.56961 3.60706C5.99314 3.78431 4.54136 4.56146 3.50663 5.782C2.47191 7.00255 1.93108 8.57584 1.99308 10.185C2.05507 11.7942 2.71528 13.3198 3.84075 14.4546L10.0523 20.7716C10.5725 21.2913 11.273 21.5826 12.0028 21.5826C12.7326 21.5826 13.4332 21.2913 13.9533 20.7716L20.1649 14.4546C21.3328 13.2615 21.9883 11.6478 21.9883 9.96566C21.9883 8.28356 21.3328 6.66978 20.1649 5.47673ZM18.7545 13.0531L12.543 19.3599C12.4723 19.4324 12.3881 19.4899 12.2954 19.5291C12.2027 19.5684 12.1033 19.5886 12.0028 19.5886C11.9024 19.5886 11.8029 19.5684 11.7102 19.5291C11.6175 19.4899 11.5334 19.4324 11.4627 19.3599L5.2511 13.0226C4.46666 12.2084 4.0274 11.1148 4.0274 9.97581C4.0274 8.83686 4.46666 7.74319 5.2511 6.92903C6.05046 6.12772 7.12855 5.6784 8.25187 5.6784C9.37518 5.6784 10.4533 6.12772 11.2526 6.92903C11.3456 7.02422 11.4562 7.09978 11.5781 7.15134C11.7 7.2029 11.8308 7.22944 11.9628 7.22944C12.0949 7.22944 12.2256 7.2029 12.3475 7.15134C12.4694 7.09978 12.58 7.02422 12.673 6.92903C13.4724 6.12772 14.5504 5.6784 15.6738 5.6784C16.7971 5.6784 17.8752 6.12772 18.6745 6.92903C19.4697 7.73252 19.9234 8.82026 19.9384 9.95924C19.9533 11.0982 19.5284 12.1979 18.7545 13.0226V13.0531Z" fill="#767676"/>
</svg>
