<svg width="24" height="24" viewBox="0 0 24 24" fill="none" xmlns="http://www.w3.org/2000/svg">
<path d="M12.8273 16.8091C12.7826 16.768 12.7338 16.7314 12.6818 16.7C12.6354 16.664 12.5831 16.6363 12.5273 16.6182C12.4731 16.5905 12.4148 16.5721 12.3545 16.5636C12.1804 16.5268 11.999 16.5459 11.8364 16.6182C11.7235 16.659 11.6211 16.7242 11.5363 16.809C11.4514 16.8938 11.3863 16.9963 11.3455 17.1091C11.2946 17.217 11.2697 17.3353 11.2727 17.4545C11.2713 17.5727 11.2929 17.6901 11.3364 17.8C11.3891 17.9086 11.4564 18.0096 11.5364 18.1C11.6213 18.1843 11.7221 18.2509 11.8328 18.2962C11.9436 18.3414 12.0622 18.3643 12.1818 18.3636C12.3011 18.3667 12.4194 18.3418 12.5273 18.2909C12.6374 18.2449 12.7389 18.1803 12.8273 18.1C12.9115 18.0151 12.9782 17.9143 13.0234 17.8036C13.0687 17.6928 13.0916 17.5742 13.0909 17.4545C13.0895 17.3357 13.0648 17.2184 13.0182 17.1091C12.9749 16.9975 12.91 16.8955 12.8273 16.8091ZM9.04545 13.0636C8.99904 13.0277 8.94676 13 8.89091 12.9818C8.83796 12.9478 8.77952 12.9232 8.71818 12.9091C8.60156 12.8819 8.48026 12.8819 8.36364 12.9091L8.2 12.9636L8.03636 13.0455L7.9 13.1545C7.72957 13.3333 7.63507 13.5712 7.63636 13.8182C7.63567 13.9378 7.6586 14.0564 7.70384 14.1672C7.74908 14.2779 7.81574 14.3787 7.9 14.4636C7.98836 14.5439 8.08983 14.6085 8.2 14.6545C8.33773 14.7111 8.48724 14.733 8.63541 14.7183C8.78357 14.7036 8.92585 14.6527 9.04974 14.5701C9.17363 14.4875 9.27533 14.3757 9.34592 14.2446C9.4165 14.1135 9.4538 13.9671 9.45455 13.8182C9.4512 13.5775 9.35703 13.3469 9.19091 13.1727L9.04545 13.0636ZM9.19091 16.8091C9.10445 16.7263 9.0025 16.6614 8.89091 16.6182C8.72634 16.5419 8.54271 16.5166 8.36364 16.5455L8.2 16.6C8.14207 16.6199 8.08704 16.6474 8.03636 16.6818C7.98874 16.7154 7.9432 16.7518 7.9 16.7909C7.81724 16.8774 7.75236 16.9793 7.70909 17.0909C7.661 17.1997 7.63615 17.3174 7.63615 17.4364C7.63615 17.5553 7.661 17.673 7.70909 17.7818C7.75513 17.892 7.8197 17.9935 7.9 18.0818C7.98343 18.1694 8.0835 18.2394 8.19433 18.2878C8.30516 18.3362 8.42453 18.362 8.54545 18.3636C8.66471 18.3667 8.78302 18.3418 8.89091 18.2909C9.00108 18.2449 9.10254 18.1803 9.19091 18.1C9.27121 18.0116 9.33578 17.9102 9.38182 17.8C9.42991 17.6912 9.45476 17.5735 9.45476 17.4545C9.45476 17.3356 9.42991 17.2179 9.38182 17.1091C9.33855 16.9975 9.27367 16.8955 9.19091 16.8091ZM11.8364 12.9818C11.7248 13.0251 11.6228 13.09 11.5364 13.1727C11.3702 13.3469 11.2761 13.5775 11.2727 13.8182C11.2735 13.9671 11.3108 14.1135 11.3814 14.2446C11.4519 14.3757 11.5536 14.4875 11.6775 14.5701C11.8014 14.6527 11.9437 14.7036 12.0919 14.7183C12.24 14.733 12.3895 14.7111 12.5273 14.6545C12.6374 14.6085 12.7389 14.5439 12.8273 14.4636C12.9115 14.3787 12.9782 14.2779 13.0234 14.1672C13.0687 14.0564 13.0916 13.9378 13.0909 13.8182C13.0876 13.5775 12.9934 13.3469 12.8273 13.1727C12.6994 13.0466 12.5371 12.9611 12.3607 12.9272C12.1844 12.8932 12.0019 12.9122 11.8364 12.9818ZM16.4636 16.8091C16.3753 16.7288 16.2738 16.6642 16.1636 16.6182C15.9981 16.5486 15.8156 16.5295 15.6393 16.5635C15.4629 16.5975 15.3006 16.6829 15.1727 16.8091C15.09 16.8955 15.0251 16.9975 14.9818 17.1091C14.9337 17.2179 14.9089 17.3356 14.9089 17.4545C14.9089 17.5735 14.9337 17.6912 14.9818 17.8C15.0279 17.9102 15.0924 18.0116 15.1727 18.1C15.2577 18.1843 15.3584 18.2509 15.4692 18.2962C15.5799 18.3414 15.6985 18.3643 15.8182 18.3636C15.9374 18.3667 16.0557 18.3418 16.1636 18.2909C16.2738 18.2449 16.3753 18.1803 16.4636 18.1C16.5898 17.9722 16.6752 17.8098 16.7092 17.6335C16.7432 17.4571 16.7242 17.2746 16.6545 17.1091C16.6113 16.9975 16.5464 16.8955 16.4636 16.8091ZM15.8182 5.63636H8.54545C8.30435 5.63636 8.07312 5.73214 7.90263 5.90263C7.73214 6.07312 7.63636 6.30435 7.63636 6.54545V10.1818C7.63636 10.4229 7.73214 10.6542 7.90263 10.8246C8.07312 10.9951 8.30435 11.0909 8.54545 11.0909H15.8182C16.0593 11.0909 16.2905 10.9951 16.461 10.8246C16.6315 10.6542 16.7273 10.4229 16.7273 10.1818V6.54545C16.7273 6.30435 16.6315 6.07312 16.461 5.90263C16.2905 5.73214 16.0593 5.63636 15.8182 5.63636ZM14.9091 9.27273H9.45455V7.45455H14.9091V9.27273ZM17.6364 2H6.72727C6.00395 2 5.31026 2.28734 4.7988 2.7988C4.28734 3.31026 4 4.00396 4 4.72727V19.2727C4 19.996 4.28734 20.6897 4.7988 21.2012C5.31026 21.7127 6.00395 22 6.72727 22H17.6364C18.3597 22 19.0534 21.7127 19.5648 21.2012C20.0763 20.6897 20.3636 19.996 20.3636 19.2727V4.72727C20.3636 4.00396 20.0763 3.31026 19.5648 2.7988C19.0534 2.28734 18.3597 2 17.6364 2ZM18.5455 19.2727C18.5455 19.5138 18.4497 19.7451 18.2792 19.9156C18.1087 20.086 17.8775 20.1818 17.6364 20.1818H6.72727C6.48617 20.1818 6.25494 20.086 6.08445 19.9156C5.91396 19.7451 5.81818 19.5138 5.81818 19.2727V4.72727C5.81818 4.48617 5.91396 4.25494 6.08445 4.08445C6.25494 3.91396 6.48617 3.81818 6.72727 3.81818H17.6364C17.8775 3.81818 18.1087 3.91396 18.2792 4.08445C18.4497 4.25494 18.5455 4.48617 18.5455 4.72727V19.2727ZM16.3182 13.0636C16.2718 13.0277 16.2195 13 16.1636 12.9818C16.1095 12.9541 16.0511 12.9357 15.9909 12.9273C15.8743 12.9001 15.753 12.9001 15.6364 12.9273L15.4727 12.9818L15.3091 13.0636L15.1727 13.1727C15.0066 13.3469 14.9124 13.5775 14.9091 13.8182C14.9098 13.9671 14.9471 14.1135 15.0177 14.2446C15.0883 14.3757 15.19 14.4875 15.3139 14.5701C15.4378 14.6527 15.5801 14.7036 15.7282 14.7183C15.8764 14.733 16.0259 14.7111 16.1636 14.6545C16.2738 14.6085 16.3753 14.5439 16.4636 14.4636C16.5479 14.3787 16.6146 14.2779 16.6598 14.1672C16.705 14.0564 16.728 13.9378 16.7273 13.8182C16.7239 13.5775 16.6298 13.3469 16.4636 13.1727L16.3182 13.0636Z" fill="#767676"/>
</svg>
