<svg width="32" height="32" viewBox="0 0 32 32" fill="none" xmlns="http://www.w3.org/2000/svg">
<path d="M20.9056 11.7569C22.8617 11.3578 24.9529 11.076 26.3414 10.9118C27.0766 10.8248 27.6272 11.5477 27.3421 12.2309C25.5587 16.5047 23.0331 20.7608 18.5548 23" stroke="black" stroke-width="2" stroke-linecap="round"/>
<path d="M16.0551 25C18.9289 25 23.8674 25 26.4204 25C27.1679 25 27.6252 24.2243 27.2083 23.6039C26.5328 22.5985 25.466 21.2113 24.055 20" stroke="black" stroke-width="2" stroke-linecap="round"/>
<path d="M11.6537 11.7569C9.69753 11.3578 7.60637 11.076 6.21787 10.9118C5.48262 10.8248 4.93205 11.5477 5.21718 12.2309C7.00061 16.5047 9.52616 20.7608 14.0045 23" stroke="black" stroke-width="2" stroke-linecap="round"/>
<path d="M16.0548 25C13.8784 25 8.8076 25 6.18726 25C5.43987 25 4.98479 24.2244 5.40158 23.604C6.07708 22.5985 7.14381 21.2114 8.55478 20" stroke="black" stroke-width="2" stroke-linecap="round"/>
<path d="M15.1604 5.78885L12.2781 11.5533C10.3532 15.4032 11.1077 20.0529 14.1513 23.0965L15.3477 24.2929C15.7382 24.6834 16.3714 24.6834 16.7619 24.2929L17.9582 23.0965C21.0018 20.0529 21.7564 15.4032 19.8314 11.5533L16.9492 5.78885C16.5807 5.05181 15.5289 5.05181 15.1604 5.78885Z" stroke="black" stroke-width="2" stroke-linecap="round"/>
</svg>
