<svg xmlns="http://www.w3.org/2000/svg" viewBox="0 0 206.25034 60" width="400" height="200">
				<g transform="translate(-3.4248569e-8,-237)" fill="#00a1ac" strokeWidth="0.49706435">
					<path
						id="path912"
						d="m 1.4044049,296.07655 c -1.02338619,-0.85256 -1.05748338,-0.97971 -0.2665827,-0.99412 1.6593803,-0.0302 6.8615827,-5.65612 11.0802728,-11.98263 2.292136,-3.43742 4.167544,-6.49197 4.167544,-6.78791 0,-0.29593 -0.950625,-0.87096 -2.112515,-1.27781 -1.16189,-0.40687 -2.491143,-0.89426 -2.953915,-1.0831 -0.662118,-0.27023 -1.159721,0.28729 -2.3357574,2.61698 -1.1692459,2.3163 -3.9685086,10.16733 -5.3001561,14.86524 -0.092432,0.32581 -0.7506028,0.97418 -1.4627971,1.44082 -4.0141675,2.63017 -2.53576164,-4.86833 4.0291519,-20.43585 0.1177924,-0.2796 -0.467929,-0.91139 -1.3018322,-1.404 -2.5905617,-1.53029 -3.4740904,-2.81649 -3.4740904,-5.05744 0,-1.13312 0.1330095,-2.19312 0.2953267,-2.35556 0.1623171,-0.16244 0.9312373,0.42887 1.7084146,1.31403 6.0195067,6.85583 40.104264,13.92886 47.841569,9.92776 0.794564,-0.4109 1.54511,-0.64667 1.667835,-0.52394 0.122583,0.12272 -0.1378,1.1253 -0.579044,2.22795 -0.538266,1.34528 -1.28095,2.20314 -2.257585,2.60767 -0.800483,0.33158 -1.455414,0.65176 -1.455414,0.71154 0,0.0598 0.686972,2.09132 1.526595,4.51454 1.864391,5.38071 2.430641,9.17398 1.369494,9.17398 -1.42405,0 -3.373882,-2.79645 -4.627415,-6.63658 -2.143034,-6.56496 -2.320399,-6.78417 -5.488877,-6.78417 -1.496613,0 -2.721091,0.18889 -2.721091,0.41976 0,0.71776 6.224912,9.1597 8.425039,11.42566 1.149575,1.18397 2.795345,2.4492 3.657288,2.81161 l 1.567176,0.65896 -1.801662,0.85914 c -1.114379,0.53143 -2.289712,0.73666 -3.081147,0.53803 -1.945972,-0.48841 -6.420115,-5.3839 -10.733773,-11.74465 l -3.878022,-5.71839 -5.154747,-0.92312 c -2.835108,-0.5077 -5.567106,-0.95411 -6.071133,-0.99198 -0.651269,-0.0489 -1.816738,1.35658 -4.028335,4.85813 -8.0275031,12.70968 -12.7173921,16.67217 -16.2497021,13.72945 z m 71.6489581,-14.8012 c -3.344012,-1.17993 -7.652907,-5.69972 -8.656932,-9.08069 -2.408773,-8.11124 0.899026,-15.83336 8.18238,-19.10193 2.664477,-1.19574 3.5464,-1.34871 6.859723,-1.18976 6.342901,0.30429 10.554688,3.08197 13.372144,8.819 1.31809,2.68396 1.371074,3.10338 1.528415,12.10028 l 0.162993,9.31996 h -1.17079 c -1.610469,0 -3.203486,-1.21631 -3.585269,-2.73743 l -0.318603,-1.26942 -1.636302,1.24807 c -3.584245,2.73383 -10.012899,3.55909 -14.737759,1.89192 z m 11.102001,-4.72478 c 1.112969,-0.6153 2.697758,-2.079 3.521799,-3.25268 1.233721,-1.75723 1.532288,-2.73703 1.691252,-5.55025 0.170489,-3.01886 0.02846,-3.7185 -1.220815,-6.01403 -4.302527,-7.90517 -15.054729,-7.48421 -18.883972,0.73934 -1.807748,3.88222 -1.466291,7.27616 1.129991,11.23154 2.793233,4.25542 8.920472,5.52261 13.761745,2.84608 z m 15.250826,-5.46804 c 0.01188,-11.93278 0.279937,-13.38977 2.98374,-16.21116 2.85441,-2.97857 8.71556,-3.94293 12.43414,-2.04585 1.08266,0.55232 1.96735,1.16744 1.96598,1.36692 -9.8e-4,0.19948 -0.50463,0.97659 -1.11839,1.72691 -1.08931,1.33169 -1.16333,1.34749 -3.10418,0.66292 -3.38825,-1.1951 -6.50188,-0.0444 -7.9102,2.92348 -0.63226,1.33236 -0.78842,3.49716 -0.78842,10.92889 0,9.17674 -0.0119,9.27938 -1.22008,10.4875 -0.67103,0.67104 -1.67759,1.22007 -2.23678,1.22007 -0.994123,0 -1.016485,-0.2459 -1.00581,-11.05968 z m 18.38512,-0.24855 0.005,-11.30821 1.51797,-2.64702 c 1.87271,-3.26564 5.14906,-5.04496 9.30366,-5.05263 2.49198,-0.005 6.59225,1.47705 6.54843,2.36631 -0.01,0.19948 -0.55686,1.02213 -1.2156,1.8281 -1.12554,1.3771 -1.27649,1.42325 -2.50506,0.76574 -1.63425,-0.87462 -4.94994,-0.77526 -6.4271,0.19261 -2.36638,1.55065 -2.75785,3.46048 -2.75785,13.45574 0,9.17674 -0.0119,9.27938 -1.22007,10.4875 -0.67104,0.67104 -1.67759,1.22007 -2.23679,1.22007 -0.99459,0 -1.01662,-0.2461 -1.01205,-11.30821 z m 67.10151,10.44136 c -1.40702,-0.49647 -3.28019,-1.83425 -5.05903,-3.6131 -3.46207,-3.46207 -4.64356,-6.74834 -4.27322,-11.88591 0.42256,-5.86226 3.50593,-10.23106 8.98915,-12.73667 2.50544,-1.14487 3.39896,-1.29634 6.71037,-1.13752 6.36218,0.30514 10.56946,3.0764 13.39007,8.81982 1.31808,2.68395 1.37107,3.10338 1.52841,12.10027 0.15659,8.95347 0.12501,9.31997 -0.80283,9.31997 -1.23093,0 -3.4325,-1.71818 -3.83779,-2.99515 -0.30095,-0.9482 -0.36532,-0.9398 -1.92751,0.25173 -3.56403,2.7184 -10.00443,3.53959 -14.71762,1.87654 z m 11.10202,-4.72478 c 1.11297,-0.6153 2.7009,-2.08347 3.52875,-3.26258 1.27327,-1.81353 1.5307,-2.69428 1.67075,-5.71624 0.15353,-3.31269 0.0458,-3.76948 -1.48312,-6.28345 -2.55431,-4.20026 -6.40084,-5.91912 -11.12293,-4.97038 -3.23733,0.65041 -5.96729,2.89524 -7.4852,6.15502 -1.30371,2.7998 -1.4692,4.93071 -0.60652,7.81008 0.62498,2.08603 3.33247,5.55606 5.05896,6.48377 3.07618,1.65297 7.21334,1.56728 10.43931,-0.21623 z m -37.41023,4.23171 c -0.67291,-0.54489 -3.34795,-6.24142 -6.94955,-14.79918 l -5.85554,-13.91329 2.2275,-0.15434 c 1.22514,-0.0848 2.40725,0.027 2.62695,0.24855 0.21969,0.22157 2.33461,5.10012 4.69982,10.84122 2.3652,5.74108 4.45513,10.60308 4.64426,10.80444 0.18915,0.20134 1.65854,-2.81832 3.26533,-6.71037 1.60678,-3.89205 3.69002,-8.92181 4.62941,-11.17724 l 1.70798,-4.10079 h 2.43562 c 1.33958,0 2.4356,0.11726 2.4356,0.26058 0,0.64716 -11.62997,27.88647 -12.12192,28.39155 -1.06317,1.09152 -2.62034,1.21994 -3.74546,0.30887 z m -19.92125,-14.29761 v -14.66339 h 2.23679 2.23679 v 13.3537 c 0,12.75693 -0.0461,13.41223 -1.0302,14.6634 -0.60746,0.77225 -1.52534,1.3097 -2.2368,1.3097 h -1.20658 z m -97.109462,7.11239 c -0.407089,-0.63119 -1.014679,-1.75988 -1.350162,-2.50822 -0.482639,-1.07651 -1.328321,-1.59543 -4.0504,-2.48532 -2.950167,-0.96445 -3.589825,-1.38898 -4.488965,-2.97925 -0.576704,-1.02 -0.907622,-1.99548 -0.735358,-2.16775 0.86817,-0.86816 15.41253,4.37266 18.77018,6.76349 2.976234,2.11928 0.837229,4.82967 -2.305802,2.92173 -1.978829,-1.20121 -2.192011,-1.18273 -2.048011,0.17756 0.09778,0.92445 -0.1564,1.14501 -1.466433,1.27187 -1.211093,0.11729 -1.759448,-0.1172 -2.325049,-0.99412 z m -9.279204,-0.39301 c -2.449662,-0.43882 -2.818707,-0.74654 -4.225989,-3.52363 -0.682859,-1.34759 -1.427516,-2.45015 -1.65476,-2.45015 -0.227413,0 -0.816657,0.89472 -1.309779,1.98826 -0.943468,2.09223 -2.240594,2.55324 -4.213337,1.49747 -0.868058,-0.46457 -0.84047,-0.63212 0.516033,-3.13667 2.459581,-4.5411 6.488535,-14.34974 7.475202,-18.19862 0.519302,-2.02578 0.944201,-4.76584 0.944201,-6.08904 0,-2.80508 0.492362,-2.98406 2.549615,-0.92679 1.397195,1.39719 1.46184,1.63781 1.168458,4.34931 l -0.310545,2.8703 4.01247,6.65137 c 2.206863,3.65826 4.012498,6.94391 4.012498,7.30144 0,0.50952 -0.536463,0.46771 -2.481533,-0.19346 -2.303464,-0.78297 -2.646894,-1.12601 -4.786096,-4.78039 -2.600538,-4.44251 -2.486268,-4.46933 -4.420658,1.03756 l -0.89945,2.56056 3.009176,5.52062 c 1.65507,3.03634 2.865627,5.5917 2.69015,5.67857 -0.175561,0.0869 -1.109504,0.0163 -2.075656,-0.15671 z m -21.725561,-5.4082 -1.6113335,-0.83539 2.7878495,-4.94859 c 1.533332,-2.72172 3.691133,-6.27872 4.795142,-7.90444 l 2.007263,-2.95586 -1.071264,-4.0845 c -1.64126,-6.25779 -1.446086,-8.19013 0.952541,-9.43051 1.836381,-0.94963 1.782697,-0.9807 1.562668,0.90403 -0.235585,2.017 0.921937,6.5987 3.220977,12.75033 l 1.752347,4.6888 -1.082451,2.22802 -1.082451,2.22802 -1.113422,-2.42347 -1.113421,-2.42348 -1.586958,2.30657 c -1.940928,2.82105 -1.976575,3.36819 -0.220086,3.37691 0.751815,0.004 1.855909,0.13791 2.453579,0.2982 1.063599,0.28523 1.068981,0.32855 0.253057,2.03965 l -0.833679,1.74823 -2.873657,-0.26058 c -2.741805,-0.24864 -2.905869,-0.19831 -3.575398,1.09642 -1.166568,2.25589 -1.810228,2.54057 -3.621303,1.60164 z m -6.490789,-3.64737 c -0.9539505,-0.95394 -0.6911998,-2.37552 0.5219217,-2.82379 0.6151136,-0.22729 2.0690062,-0.536 3.2308965,-0.686 2.4275958,-0.31339 2.6002838,0.0693 1.1238472,2.49081 -0.7923659,1.29955 -1.3071579,1.61545 -2.6325772,1.61545 -0.9061859,0 -1.9160452,-0.26842 -2.2440882,-0.59647 z M 24.118239,248.0841 c -1.023781,-2.45023 -1.038096,-2.38964 0.983201,-4.16437 2.385467,-2.09445 3.729824,-2.06766 3.651878,0.0728 -0.09835,2.70143 -0.696836,4.60783 -1.397955,4.45284 -0.36076,-0.0797 -1.062584,0.22305 -1.559623,0.67285 -0.852898,0.77185 -0.947244,0.71369 -1.677501,-1.03409 z m 114.818671,-0.91474 c -1.50211,-1.5021 -1.58002,-2.3082 -0.36778,-3.80525 2.36518,-2.92088 7.21981,0.62909 4.9406,3.61283 -0.34173,0.44737 -1.22518,0.95891 -1.96324,1.13675 -1.04059,0.25074 -1.62656,0.0387 -2.60958,-0.94433 z M 22.48112,242.25277 c -0.268555,-0.34172 -0.627428,-1.35679 -0.797833,-2.2557 -0.431718,-2.27736 0.779037,-2.64849 2.684571,-0.82288 l 1.461134,1.39986 -1.080395,1.15003 c -1.235721,1.31536 -1.585577,1.39694 -2.267477,0.52869 z"
					/>
				</g>
			</svg>
